<?xml version="1.0" standalone="no"?>
<!DOCTYPE svg PUBLIC "-//W3C//DTD SVG 20010904//EN"
 "http://www.w3.org/TR/2001/REC-SVG-20010904/DTD/svg10.dtd">
<svg version="1.0" xmlns="http://www.w3.org/2000/svg"
 width="740.000000pt" height="445.000000pt" viewBox="0 0 740.000000 445.000000"
 preserveAspectRatio="xMidYMid meet">

<g transform="translate(0.000000,445.000000) scale(0.100000,-0.100000)"
fill="#000000" stroke="none">
<path d="M5224 4012 c-12 -2 -30 -12 -40 -23 -28 -31 -6 -64 53 -81 32 -9 49
-20 51 -32 8 -38 -57 -50 -85 -16 -20 23 -33 26 -33 7 0 -26 36 -47 78 -47 33
0 45 5 58 25 26 39 7 70 -53 87 -36 10 -48 18 -48 33 0 27 50 33 76 9 21 -19
35 -14 26 9 -7 18 -54 34 -83 29z"/>
<path d="M6120 3915 c0 -78 3 -95 15 -95 12 0 15 15 16 68 l1 67 22 -65 c31
-88 46 -88 76 2 l25 73 3 -72 c4 -108 22 -89 22 23 0 84 -2 95 -17 92 -10 -2
-25 -29 -41 -76 -13 -41 -28 -70 -32 -65 -4 4 -17 38 -30 76 -17 52 -26 67
-41 67 -17 0 -19 -8 -19 -95z"/>
<path d="M6652 3999 c2 -6 8 -10 13 -10 5 0 11 4 13 10 2 6 -4 11 -13 11 -9 0
-15 -5 -13 -11z"/>
<path d="M6500 3981 c0 -11 -6 -22 -12 -25 -10 -5 -10 -7 0 -12 7 -4 12 -27
12 -65 0 -58 1 -59 28 -59 24 1 25 2 10 14 -21 16 -25 101 -5 110 10 5 10 7 0
12 -7 3 -13 14 -13 25 0 10 -4 19 -10 19 -5 0 -10 -9 -10 -19z"/>
<path d="M5374 3952 c-38 -25 -40 -103 -4 -122 28 -15 67 -12 85 6 22 23 10
30 -21 14 -18 -10 -30 -11 -42 -4 -34 22 -25 34 27 34 47 0 51 2 51 23 0 43
-60 73 -96 49z m64 -34 c3 -15 -4 -18 -32 -18 -38 0 -44 8 -24 28 17 17 52 11
56 -10z"/>
<path d="M5500 3888 c0 -53 3 -68 15 -68 10 0 15 15 17 58 3 53 5 57 28 57 23
0 25 -4 28 -57 4 -79 22 -73 22 7 0 71 -4 75 -77 73 l-33 -1 0 -69z"/>
<path d="M5662 3951 c-26 -16 -10 -55 28 -67 42 -14 54 -44 18 -44 -13 0 -29
5 -35 11 -6 6 -17 9 -23 7 -9 -3 -8 -9 4 -21 24 -24 82 -22 96 2 15 29 2 50
-41 62 -21 7 -39 18 -39 26 0 16 42 17 58 1 17 -17 28 -2 12 17 -14 16 -57 20
-78 6z"/>
<path d="M5796 3938 c-36 -51 -8 -118 49 -118 24 0 39 7 49 22 36 51 8 118
-49 118 -24 0 -39 -7 -49 -22z m79 -48 c0 -42 -2 -45 -27 -48 -36 -4 -54 30
-39 71 9 23 16 28 39 25 25 -3 27 -6 27 -48z"/>
<path d="M5940 3888 c0 -80 18 -92 22 -15 2 43 7 54 26 62 32 14 27 25 -13 23
l-35 -1 0 -69z"/>
<path d="M6354 3943 c-13 -13 -14 -18 -3 -22 7 -2 15 1 17 8 2 6 17 11 34 11
42 0 34 -32 -10 -41 -43 -9 -55 -21 -50 -50 3 -22 8 -24 61 -25 l57 -1 0 57
c0 31 -5 61 -12 68 -18 18 -74 15 -94 -5z m72 -89 c-4 -10 -16 -14 -33 -12
-38 4 -36 31 2 38 32 6 41 -1 31 -26z"/>
<path d="M6570 3888 c0 -80 18 -92 22 -15 2 43 7 54 26 62 32 14 27 25 -13 23
l-35 -1 0 -69z"/>
<path d="M6650 3890 c0 -56 3 -70 15 -70 12 0 15 14 15 70 0 56 -3 70 -15 70
-12 0 -15 -14 -15 -70z"/>
<path d="M6710 3954 c0 -3 9 -18 20 -33 l19 -28 -25 -36 c-19 -29 -21 -37 -10
-37 9 0 23 12 33 26 l17 26 19 -26 c10 -14 25 -26 33 -26 11 0 7 10 -12 35
l-27 36 21 29 c12 16 22 32 22 35 0 13 -23 3 -40 -17 l-19 -23 -16 23 c-15 20
-35 30 -35 16z"/>
<path d="M6020 3890 c0 -5 16 -10 35 -10 19 0 35 5 35 10 0 6 -16 10 -35 10
-19 0 -35 -4 -35 -10z"/>
<path d="M5485 3518 c-148 -110 -279 -206 -290 -214 -14 -10 -16 -17 -8 -25 7
-7 91 49 289 196 154 114 283 211 289 216 6 6 6 12 0 18 -6 6 -114 -68 -280
-191z"/>
<path d="M3130 3595 l0 -95 60 0 c33 0 60 4 60 10 0 6 -20 10 -45 10 l-45 0 0
85 c0 69 -3 85 -15 85 -12 0 -15 -17 -15 -95z"/>
<path d="M3272 3679 c2 -6 8 -10 13 -10 5 0 11 4 13 10 2 6 -4 11 -13 11 -9 0
-15 -5 -13 -11z"/>
<path d="M3270 3570 c0 -56 3 -70 15 -70 12 0 15 14 15 70 0 56 -3 70 -15 70
-12 0 -15 -14 -15 -70z"/>
<path d="M3330 3569 c0 -54 3 -69 15 -69 10 0 15 15 17 58 3 53 5 57 28 57 23
0 25 -4 28 -57 2 -43 7 -58 17 -58 11 0 15 13 15 51 0 75 -11 89 -70 88 l-50
-2 0 -68z"/>
<path d="M3490 3625 c-18 -22 -8 -49 25 -60 41 -14 56 -25 50 -36 -9 -13 -49
-11 -63 3 -17 17 -27 2 -12 -17 9 -10 26 -15 48 -13 66 6 69 63 4 80 -17 5
-34 13 -37 18 -10 16 26 24 46 12 24 -15 29 -15 29 2 0 27 -69 36 -90 11z"/>
<path d="M3644 3632 c-38 -25 -40 -103 -4 -122 28 -15 67 -12 85 6 22 23 10
30 -21 14 -18 -10 -30 -11 -42 -4 -34 22 -25 34 27 34 47 0 51 2 51 23 0 43
-60 73 -96 49z m64 -34 c3 -15 -4 -18 -32 -18 -38 0 -44 8 -24 28 17 17 52 11
56 -10z"/>
<path d="M2254 3482 c-68 -10 -95 -121 -41 -168 18 -15 41 -24 62 -24 21 0 44
9 62 24 23 20 28 32 28 69 0 69 -46 109 -111 99z m70 -44 c22 -31 20 -84 -4
-108 -43 -43 -110 -10 -110 53 0 48 24 77 65 77 24 0 39 -7 49 -22z"/>
<path d="M2630 3471 c0 -6 5 -13 10 -16 6 -3 10 1 10 9 0 9 -4 16 -10 16 -5 0
-10 -4 -10 -9z"/>
<path d="M2680 3385 c0 -78 3 -95 15 -95 10 0 15 10 15 28 0 43 11 45 37 7 13
-19 31 -35 39 -35 11 0 7 11 -15 43 l-30 44 27 26 c36 36 7 36 -30 0 l-28 -27
0 52 c0 40 -4 52 -15 52 -12 0 -15 -17 -15 -95z"/>
<path d="M2560 3451 c0 -11 -6 -22 -12 -25 -10 -5 -10 -7 0 -12 7 -4 12 -27
12 -65 0 -58 1 -59 28 -59 24 1 25 2 10 14 -21 16 -25 101 -5 110 10 5 10 7 0
12 -7 3 -13 14 -13 25 0 10 -4 19 -10 19 -5 0 -10 -9 -10 -19z"/>
<path d="M3615 3439 c-9 -13 -44 16 260 -204 143 -104 277 -201 297 -217 24
-19 39 -25 43 -17 10 16 -2 26 -300 241 -315 226 -292 211 -300 197z"/>
<path d="M2400 3333 c0 -55 4 -93 10 -93 6 0 10 13 10 28 0 26 3 28 34 24 26
-3 37 1 50 19 20 30 21 68 0 97 -12 18 -24 22 -60 20 l-44 -1 0 -94z m85 27
c0 -35 -4 -45 -18 -48 -26 -5 -47 16 -47 47 0 33 18 53 45 49 17 -3 20 -11 20
-48z"/>
<path d="M2630 3360 c0 -40 4 -70 10 -70 6 0 10 30 10 70 0 40 -4 70 -10 70
-6 0 -10 -30 -10 -70z"/>
<path d="M4760 3158 c-58 -94 -113 -184 -123 -200 l-17 -29 -29 20 c-74 53
-190 74 -286 52 -23 -6 -15 -8 41 -12 70 -4 164 -41 221 -86 l22 -18 -89 -145
c-69 -113 -97 -149 -125 -165 -20 -11 -41 -28 -46 -38 -7 -11 -18 -15 -32 -13
-12 3 -116 8 -232 11 -115 3 -383 12 -595 20 -212 8 -792 31 -1290 50 -498 19
-929 37 -958 40 l-52 5 0 -940 c0 -693 3 -940 11 -940 8 0 1639 -577 1746
-617 7 -3 13 0 13 6 0 10 1014 1666 1234 2016 45 72 103 164 129 206 44 72 48
75 78 71 26 -4 37 0 53 21 l21 26 255 -10 c628 -23 736 -28 753 -34 16 -7 17
13 17 326 l0 334 -298 108 c-163 59 -302 107 -307 107 -6 0 -57 -77 -115 -172z
m171 140 c37 -10 39 -14 39 -50 l0 -38 -45 0 -45 0 0 50 c0 28 3 50 6 50 4 0
24 -5 45 -12z m-71 -261 l0 -253 -47 -24 c-27 -13 -121 -63 -210 -112 -152
-83 -183 -97 -183 -82 0 4 41 74 92 156 l91 149 27 -26 c14 -14 31 -25 37 -25
6 0 10 -8 9 -17 -1 -13 5 -17 24 -15 43 5 41 17 -13 78 l-54 59 111 182 c61
100 112 182 114 183 1 0 2 -114 2 -253z m193 217 c64 -22 63 -44 -3 -44 -49 0
-50 1 -50 30 0 17 1 30 3 30 2 0 24 -7 50 -16z m-83 -124 l0 -50 -45 0 -45 0
0 50 0 50 45 0 45 0 0 -50z m130 0 l0 -50 -50 0 -50 0 0 50 0 50 50 0 50 0 0
-50z m130 0 l0 -50 -45 0 -45 0 0 50 0 50 45 0 45 0 0 -50z m128 -18 l3 -32
-50 0 -51 0 0 50 0 50 48 -18 c41 -15 47 -21 50 -50z m87 -2 c2 -4 -7 -12 -20
-18 -23 -11 -25 -9 -25 12 0 19 4 23 20 19 11 -3 22 -9 25 -13z m-475 -110 l0
-50 -45 0 -45 0 0 50 0 50 45 0 45 0 0 -50z m130 0 l0 -50 -50 0 -50 0 0 50 0
50 50 0 50 0 0 -50z m130 17 c0 -28 -5 -36 -35 -50 -20 -9 -40 -17 -45 -17 -6
0 -10 23 -10 50 l0 50 45 0 c44 0 45 -1 45 -33z m109 30 c-2 -2 -21 -13 -41
-25 l-38 -21 0 24 c0 23 4 25 42 25 23 0 39 -1 37 -3z m121 -47 c0 -49 -1 -50
-30 -50 -29 0 -30 1 -30 50 0 49 1 50 30 50 29 0 30 -1 30 -50z m-100 -5 l0
-45 -50 0 c-68 0 -69 26 -2 63 26 15 48 27 50 27 1 0 2 -20 2 -45z m-130 -35
c0 -5 -8 -10 -17 -10 -15 0 -16 2 -3 10 19 12 20 12 20 0z m-260 -78 c0 -32
-5 -41 -25 -50 -53 -24 -65 -17 -65 38 l0 50 45 0 45 0 0 -38z m129 34 c-2 -1
-25 -15 -51 -30 l-48 -28 0 31 c0 31 1 31 52 31 28 0 49 -2 47 -4z m131 -46
l0 -50 -45 0 -45 0 0 50 0 50 45 0 45 0 0 -50z m130 0 l0 -50 -50 0 -50 0 0
50 0 50 50 0 50 0 0 -50z m100 0 c0 -49 -1 -50 -30 -50 -29 0 -30 1 -30 50 0
49 1 50 30 50 29 0 30 -1 30 -50z m-360 -10 l0 -40 -50 0 c-64 0 -65 16 -2 52
26 15 48 27 50 27 1 1 2 -17 2 -39z m-130 -120 l0 -50 -45 0 -45 0 0 43 c0 24
3 47 7 50 3 4 24 7 45 7 l38 0 0 -50z m130 0 l0 -50 -50 0 -50 0 0 50 0 50 50
0 50 0 0 -50z m130 0 l0 -50 -45 0 -45 0 0 50 0 50 45 0 45 0 0 -50z m130 0
l0 -50 -50 0 -50 0 0 50 0 50 50 0 50 0 0 -50z m100 0 c0 -49 -1 -50 -30 -50
-29 0 -30 1 -30 50 0 49 1 50 30 50 29 0 30 -1 30 -50z m-602 -40 c-3 -20 -12
-24 -373 -145 -11 -4 57 35 150 87 94 51 181 101 195 111 25 17 25 17 28 -8 2
-14 2 -34 0 -45z m269 -127 c134 -47 241 -88 239 -90 -2 -3 -111 1 -242 7
-132 6 -293 13 -359 15 -66 3 -163 8 -215 12 l-95 6 195 67 c107 37 204 68
214 69 11 0 129 -38 263 -86z m-160 81 c-3 -3 -12 -4 -19 -1 -8 3 -5 6 6 6 11
1 17 -2 13 -5z m133 -24 c0 -16 -1 -30 -3 -30 -2 0 -24 7 -50 16 -64 22 -63
44 3 44 49 0 50 -1 50 -30z m130 -20 c0 -55 -5 -58 -59 -39 -28 10 -31 15 -31
50 l0 39 45 0 45 0 0 -50z m130 0 l0 -50 -50 0 -50 0 0 50 0 50 50 0 50 0 0
-50z m100 0 c0 -49 -1 -50 -30 -50 -29 0 -30 1 -30 50 0 49 1 50 30 50 29 0
30 -1 30 -50z m-3400 -283 c459 -162 843 -298 853 -302 15 -6 17 -23 17 -149
l0 -141 -772 -420 c-425 -231 -816 -444 -870 -473 l-98 -52 0 921 c0 873 1
921 18 916 9 -2 393 -137 852 -300z m270 257 c487 -18 1045 -41 1240 -49 195
-8 434 -18 530 -22 96 -3 183 -9 192 -12 10 -4 -259 -100 -668 -238 l-685
-232 -817 289 c-449 159 -828 293 -842 299 -18 7 1 8 70 5 52 -3 493 -21 980
-40z m3030 -64 c0 -12 -17 -12 -45 0 -17 7 -15 9 13 9 17 1 32 -3 32 -9z m100
-19 c0 -27 -2 -29 -27 -22 -18 5 -29 15 -31 29 -3 19 1 22 27 22 28 0 31 -3
31 -29z m-1141 -53 c-7 -13 -40 -68 -74 -123 -34 -55 -96 -156 -137 -225 -41
-69 -147 -242 -235 -385 -88 -143 -332 -540 -542 -882 -210 -343 -384 -623
-387 -623 -2 0 -4 341 -4 758 l0 757 68 36 c77 42 971 526 1172 635 74 41 139
74 143 74 4 0 2 -10 -4 -22z m-144 -31 c-86 -51 -258 -145 -695 -382 -250
-136 -474 -259 -497 -272 l-43 -25 0 139 0 138 628 212 c345 116 632 212 637
212 6 1 -8 -10 -30 -22z m-1245 -1477 c0 -424 -2 -770 -5 -770 -10 0 -1700
603 -1707 609 -7 6 1677 928 1700 930 9 1 12 -159 12 -769z"/>
<path d="M2625 3220 c-4 -6 -5 -13 -4 -14 52 -39 672 -468 683 -472 10 -4 16
-1 16 7 -1 11 -647 473 -681 487 -4 2 -10 -2 -14 -8z"/>
<path d="M4464 2409 c-3 -6 -2 -14 2 -19 13 -11 333 -243 352 -255 10 -5 55
-37 102 -70 154 -110 147 -106 153 -91 4 9 -34 42 -106 95 -408 297 -483 350
-489 351 -4 0 -10 -5 -14 -11z"/>
<path d="M4769 2088 c-8 -7 -28 -28 -44 -47 -22 -24 -24 -31 -10 -23 24 12 89
82 77 82 -4 0 -15 -6 -23 -12z"/>
<path d="M4900 1805 l0 -95 55 0 c42 0 60 5 75 20 24 24 25 38 5 67 -10 14
-12 24 -5 28 15 9 12 42 -6 59 -10 11 -34 16 -70 16 l-54 0 0 -95z m105 45 c0
-22 -5 -25 -37 -28 -36 -3 -38 -2 -38 28 0 30 2 31 38 28 32 -3 37 -6 37 -28z
m6 -66 c20 -24 -1 -48 -45 -52 -35 -3 -36 -2 -36 32 0 34 2 36 34 36 18 0 39
-7 47 -16z"/>
<path d="M6070 1805 c0 -78 3 -95 15 -95 10 0 15 10 15 30 0 17 4 30 9 30 6 0
18 -13 28 -30 9 -16 23 -30 30 -30 18 0 17 6 -12 48 l-25 36 27 28 c35 37 9
38 -29 1 l-28 -27 0 52 c0 40 -4 52 -15 52 -12 0 -15 -17 -15 -95z"/>
<path d="M6206 1860 c-8 -16 -11 -30 -6 -30 5 0 10 -26 12 -57 3 -51 6 -58 26
-61 12 -2 22 1 22 7 0 6 -4 11 -10 11 -15 0 -12 97 3 104 10 5 10 7 0 12 -7 3
-13 14 -13 25 0 28 -17 23 -34 -11z"/>
<path d="M5080 1778 c0 -53 3 -68 15 -68 10 0 15 15 17 58 2 47 6 57 21 56 9
-1 17 4 17 11 0 8 -13 13 -35 12 l-35 -1 0 -68z"/>
<path d="M5194 1842 c-38 -25 -40 -103 -4 -122 28 -15 67 -12 85 6 22 23 10
30 -21 14 -18 -10 -30 -11 -42 -4 -34 22 -25 34 27 34 47 0 51 2 51 23 0 43
-60 73 -96 49z m64 -34 c3 -15 -4 -18 -32 -18 -38 0 -44 8 -24 28 17 17 52 11
56 -10z"/>
<path d="M5320 1778 c0 -53 3 -68 15 -68 10 0 15 15 17 58 3 53 5 57 28 57 23
0 25 -4 28 -57 4 -79 22 -73 22 7 0 71 -4 75 -77 73 l-33 -1 0 -69z"/>
<path d="M5470 1778 c0 -53 3 -68 15 -68 10 0 15 15 17 58 3 53 5 57 28 57 23
0 25 -4 28 -57 4 -79 22 -73 22 7 0 71 -4 75 -77 73 l-33 -1 0 -69z"/>
<path d="M5620 1753 c0 -76 3 -93 15 -93 10 0 15 10 15 29 0 25 3 28 25 23 37
-7 65 23 65 68 0 49 -24 70 -78 67 l-42 -1 0 -93z m92 52 c15 -33 -3 -75 -32
-75 -12 0 -25 10 -32 25 -15 33 3 75 32 75 12 0 25 -10 32 -25z"/>
<path d="M5770 1791 c0 -69 11 -82 69 -79 l41 1 0 69 c0 39 -4 68 -10 68 -5 0
-10 -22 -10 -48 0 -50 -12 -72 -41 -72 -17 0 -29 37 -29 91 0 16 -4 29 -10 29
-6 0 -10 -26 -10 -59z"/>
<path d="M5920 1779 c0 -54 3 -69 15 -69 10 0 15 15 17 58 3 53 5 57 28 57 23
0 25 -4 28 -57 2 -43 7 -58 17 -58 11 0 15 13 15 51 0 75 -11 89 -70 88 l-50
-2 0 -68z"/>
</g>
</svg>
